<?xml version="1.0" encoding="iso-8859-1"?>
<!-- Uploaded to: SVG Repo, www.svgrepo.com, Generator: SVG Repo Mixer Tools -->
<svg fill="#000000" height="800px" width="800px" version="1.1" id="Layer_1" xmlns="http://www.w3.org/2000/svg" xmlns:xlink="http://www.w3.org/1999/xlink" 
	 viewBox="0 0 512 512" xml:space="preserve">
<g>
	<g>
		<path d="M284.444,52.509c-20.912,0-37.926,17.009-37.926,37.926c0,20.917,17.014,37.926,37.926,37.926
			c20.912,0,37.926-17.009,37.926-37.926C322.37,69.518,305.356,52.509,284.444,52.509z M284.444,109.398
			c-10.458,0-18.963-8.509-18.963-18.963c0-10.454,8.505-18.963,18.963-18.963c10.458,0,18.963,8.509,18.963,18.963
			C303.407,100.889,294.903,109.398,284.444,109.398z"/>
	</g>
</g>
<g>
	<g>
		<path d="M477.771,90.991L352,45.891V23.944c0-5.241-5.259-9.722-10.495-9.722h-86.042c-3.194,0-6.176,1.732-7.931,4.398
			l-37.227,56.822L1.925,350.155c-2.042,2.694-2.495,6.285-1.19,9.405c1.301,3.12,4.167,5.313,7.519,5.748
			c2.195,0.287,23.829,3.002,53.259,3.002c3.819,0,7.78-0.049,11.836-0.151l-5.933,11.868L10.638,484.121
			c-1.602,2.935-1.537,6.319,0.171,9.199c1.708,2.87,4.806,4.458,8.153,4.458h104.296c5.236,0,8.296-3.88,8.296-9.12v-95.176h37.926
			v76.213c0,5.241,4.245,9.482,9.482,9.482s9.482-4.241,9.482-9.482v-10.729l14.296,9.137c1.616,1.074,3.741,1.592,5.546,1.592
			c3.065,0,6.218-1.481,8.046-4.222c2.903-4.361,1.801-10.421-2.556-13.329l-16.537-11.255h11.352c5.236,0,9.482-4.241,9.482-9.481
			c0-5.241-4.245-9.482-9.482-9.482h-20.148v-28.444h20.236c9.708,0,20.06-0.62,27.171-2.482v78.694
			c0,5.241,4.245,9.482,9.481,9.482s9.482-4.241,9.482-9.482v-10.729l14.296,9.137c1.616,1.074,3.741,1.592,5.546,1.592
			c3.065,0,6.218-1.481,8.046-4.222c2.903-4.361,1.801-10.421-2.556-13.329l-16.537-11.255h11.352c5.236,0,9.481-4.241,9.481-9.481
			c0-5.241-4.245-9.482-9.481-9.482h-20.148v-36.194C311.703,366.204,352,313.505,352,251.685v-97.743l125.771-45.099
			c3.773-1.343,6.292-4.917,6.292-8.926C484.063,95.907,481.544,92.333,477.771,90.991z M27.356,348.037l187.829-247.593
			c7.412,23.982,18.815,76.491,12.398,159.926c-1.736,22.565-11.014,40.38-28.361,54.481
			C153.064,352.371,64.231,350.639,27.356,348.037z M112.592,478.815H34.935l46.546-85.333h31.111V478.815z M333.037,50.859
			c-2.37,1.086-2.37,2.16,0,3.208v44.15c0,0.553-0.171,1.116-0.171,1.699c0,0.583,0.171,1.146,0.171,1.699v44.151
			c-2.37,1.049-2.37,2.123,0,3.208v102.711c0,67.926-56.347,122.833-124.357,122.833h-85.421H91.194l2.62-5.06
			c0.411-0.819,0.646-1.583,0.805-2.444c40.202-3.021,85.795-12.5,116.538-37.477c21.32-17.315,33.208-40.088,35.333-67.727
			c8.097-105.243-10.889-163.243-17.675-180.072l31.768-48.553h72.454V50.859z M352,133.81v-24.773h67.338L352,133.81z M352,90.074
			V66.023l67.338,24.051H352z"/>
	</g>
</g>
<g>
	<g>
		<path d="M416.426,380.722c-0.477-1.139-1.139-2.185-1.991-3.037c-0.949-0.944-1.991-1.611-3.13-2.083
			c-3.412-1.426-7.68-0.574-10.333,2.083c-0.857,0.852-1.519,1.898-1.995,3.037c-0.472,1.139-0.755,2.37-0.755,3.602
			c0,2.555,0.944,4.926,2.75,6.732c1.801,1.796,4.171,2.75,6.731,2.75s4.931-0.954,6.731-2.75c0.852-0.852,1.514-1.898,1.991-3.037
			c0.472-1.139,0.759-2.37,0.759-3.694C417.185,383.093,416.898,381.861,416.426,380.722z"/>
	</g>
</g>
<g>
	<g>
		<path d="M471.324,377.685c-3.509-3.509-9.958-3.509-13.463,0c-0.857,0.852-1.519,1.898-1.995,3.037
			c-0.472,1.139-0.755,2.37-0.755,3.602c0,2.555,0.944,4.926,2.75,6.732c1.801,1.796,4.171,2.75,6.731,2.75
			c2.56,0,4.931-0.954,6.731-2.75c0.852-0.852,1.514-1.898,1.991-3.037c0.472-1.139,0.759-2.37,0.759-3.694
			C474.074,381.861,473.028,379.389,471.324,377.685z"/>
	</g>
</g>
<g>
	<g>
		<path d="M452.361,396.648c-3.509-3.602-9.958-3.602-13.463,0c-1.708,1.704-2.75,4.176-2.75,6.639c0,2.555,0.944,4.926,2.75,6.732
			c1.801,1.796,4.171,2.75,6.731,2.75s4.931-0.954,6.731-2.75c1.801-1.806,2.75-4.176,2.75-6.732
			C455.111,400.824,454.065,398.352,452.361,396.648z"/>
	</g>
</g>
<g>
	<g>
		<path d="M471.324,425.093c-3.509-3.602-9.958-3.602-13.463,0c-1.708,1.704-2.75,4.176-2.75,6.639c0,2.555,0.944,4.926,2.75,6.732
			c1.801,1.796,4.171,2.75,6.731,2.75c1.231,0,2.463-0.194,3.602-0.667c1.139-0.472,2.181-1.232,3.13-2.083
			c1.801-1.806,2.75-4.176,2.75-6.732C474.074,429.269,473.028,426.796,471.324,425.093z"/>
	</g>
</g>
<g>
	<g>
		<path d="M509.25,415.611c-3.509-3.602-9.861-3.602-13.463,0c-1.708,1.704-2.75,4.176-2.75,6.639c0,1.324,0.282,2.555,0.755,3.694
			c0.477,1.139,1.139,2.185,1.995,3.037c1.801,1.796,4.171,2.75,6.731,2.75c2.56,0,4.931-0.954,6.731-2.75
			c0.852-0.852,1.514-1.898,1.991-3.037c0.569-1.139,0.759-2.37,0.759-3.694C512,419.787,510.954,417.315,509.25,415.611z"/>
	</g>
</g>
<g>
	<g>
		<path d="M433.398,425.093c-0.949-0.944-1.991-1.611-3.13-2.083c-3.509-1.426-7.68-0.574-10.333,2.083
			c-1.708,1.704-2.75,4.176-2.75,6.639c0,1.324,0.282,2.555,0.755,3.694c0.477,1.139,1.139,2.185,1.995,3.037
			c1.801,1.796,4.171,2.75,6.731,2.75c2.56,0,4.931-0.954,6.731-2.75c0.852-0.852,1.514-1.898,1.991-3.037
			c0.472-1.139,0.759-2.37,0.759-3.694C436.148,429.269,435.102,426.796,433.398,425.093z"/>
	</g>
</g>
<g>
	<g>
		<path d="M416.426,466.056c-0.477-1.139-1.139-2.185-1.991-3.037c-3.606-3.602-9.958-3.509-13.463,0
			c-0.857,0.852-1.519,1.898-1.995,3.037c-0.472,1.139-0.755,2.37-0.755,3.602c0,1.324,0.282,2.555,0.755,3.694
			c0.477,1.139,1.139,2.185,1.995,3.037c1.801,1.796,4.171,2.843,6.731,2.843s4.931-1.046,6.731-2.843
			c1.801-1.806,2.75-4.176,2.75-6.732C417.185,468.426,416.898,467.195,416.426,466.056z"/>
	</g>
</g>
<g>
	<g>
		<path d="M473.315,456.574c-0.477-1.139-1.139-2.185-1.991-3.037c-3.606-3.602-9.958-3.509-13.463,0
			c-0.857,0.852-1.519,1.898-1.995,3.037c-0.472,1.139-0.755,2.37-0.755,3.602c0,2.555,0.944,4.926,2.75,6.732
			c1.801,1.796,4.171,2.75,6.731,2.75c1.231,0,2.463-0.194,3.602-0.667c1.139-0.472,2.181-1.232,3.13-2.083
			c1.801-1.806,2.75-4.176,2.75-6.732C474.074,458.945,473.884,457.713,473.315,456.574z"/>
	</g>
</g>
</svg>